<?xml version="1.0" encoding="UTF-8"?>
<svg version="1.1" xmlns="http://www.w3.org/2000/svg" width="500" height="500">
<path d="M0 0 C165 0 330 0 500 0 C500 165 500 330 500 500 C335 500 170 500 0 500 C0 335 0 170 0 0 Z " fill="#4B3F2A" transform="translate(0,0)"/>
<path d="M0 0 C6.57789986 6.96483515 7.37345408 14.21238146 7.29443359 23.44482422 C6.97478921 30.62346589 5.93406129 37.7018712 4.9375 44.8125 C4.70961178 46.48720198 4.48249483 48.16200907 4.25610352 49.83691406 C3.13754005 58.07597411 1.97780451 66.30930493 0.8203125 74.54296875 C0.50517859 76.78592986 0.19013787 79.02890392 -0.12466431 81.27191162 C-0.33395903 82.76255722 -0.54357637 84.25315756 -0.75350952 85.74371338 C-2.37089727 97.24982956 -3.79768673 108.76871944 -5.11804199 120.31237793 C-6.42415052 131.71227068 -7.91535957 143.07715766 -9.49157715 154.44256592 C-11.00536021 165.39845843 -12.39423781 176.36679367 -13.71484375 187.34765625 C-13.83332641 188.33263155 -13.83332641 188.33263155 -13.95420265 189.33750534 C-14.82794416 196.60885108 -15.69264879 203.88123613 -16.55200195 211.15429688 C-16.69863785 212.38772324 -16.84527374 213.6211496 -16.99635315 214.89195251 C-17.27387595 217.22726599 -17.54923738 219.56283764 -17.8221283 221.8986969 C-17.94624588 222.94154343 -18.07036346 223.98438995 -18.19824219 225.05883789 C-18.3052948 225.96871964 -18.41234741 226.87860138 -18.52264404 227.8160553 C-18.84165654 230.01967567 -19.33284804 232.09402023 -19.875 234.25 C-20.06886233 236.7109993 -20.2231266 239.15657392 -20.33984375 241.62109375 C-20.4184873 243.09831435 -20.49726799 244.57552766 -20.57617188 246.05273438 C-20.69465252 248.35593004 -20.81110599 250.65919767 -20.92456055 252.96264648 C-22.68902768 288.30174626 -22.68902768 288.30174626 -33.25 299.8828125 C-38.8752968 304.61563433 -43.91828258 305.0052895 -51.08203125 304.71484375 C-59.91272042 303.63260687 -66.09059929 298.02743536 -71.65625 291.37084961 C-74.00558693 288.06631902 -75.64796342 284.72267022 -77.19921875 281.00390625 C-77.49589447 280.30935837 -77.79257019 279.61481049 -78.09823608 278.8992157 C-81.19347359 271.60551039 -84.13286412 264.2476719 -87.06964111 256.88912964 C-93.90395942 239.79795357 -101.18457148 222.97533755 -108.875 206.25 C-109.43037014 205.03262636 -109.98521355 203.8150123 -110.53955078 202.59716797 C-116.5173112 189.46735701 -122.63765734 176.46750901 -129.4765625 163.76171875 C-132.0770813 158.91742717 -134.50630655 153.9933448 -136.9375 149.0625 C-141.28053309 140.27868342 -145.97087638 131.7315278 -150.875 123.25 C-151.205 123.25 -151.535 123.25 -151.875 123.25 C-158.37377722 165.2032174 -164.44116819 207.34325572 -167 249.75 C-168.78787636 278.7882108 -168.78787636 278.7882108 -178 287.1875 C-184.07925974 290.63241385 -192.74632171 290.3259193 -199.36328125 288.6015625 C-205.73536112 285.70628738 -210.12125683 280.64012106 -212.6875 274.1875 C-214.73018826 268.33179366 -215.0568116 262.40484456 -215.0625 256.25 C-215.07474609 255.58355469 -215.08699219 254.91710937 -215.09960938 254.23046875 C-215.1156556 248.46452601 -214.28549815 242.92415057 -213.42553711 237.23095703 C-212.80062735 232.90497187 -212.38005266 228.56666354 -211.98046875 224.21484375 C-211.90702744 223.41707016 -211.83358612 222.61929657 -211.75791931 221.79734802 C-211.60503416 220.12744695 -211.45266638 218.45749843 -211.30078125 216.7875061 C-209.61076789 198.34692363 -207.37754003 180.02676393 -204.77851868 161.69447327 C-203.92498486 155.6626409 -203.13556828 149.62410652 -202.35571289 143.58227539 C-199.48841988 121.46960681 -195.89260077 99.48108162 -191.89306641 77.54638672 C-190.57852358 70.3087762 -189.33887132 63.06297896 -188.14453125 55.8046875 C-187.68508758 53.03482941 -187.22508897 50.26506383 -186.76507568 47.49530029 C-186.46734377 45.68927416 -186.17301747 43.88268272 -185.88238525 42.07550049 C-180.98902002 11.66597066 -180.98902002 11.66597066 -169.8203125 2.578125 C-164.32355088 -1.17468414 -158.30504518 -1.37944719 -151.875 -0.75 C-145.71111674 0.58615824 -140.28285795 2.59861015 -136.6875 8.05078125 C-130.648826 19.52006833 -134.4058384 32.23077574 -137.34033203 44.07714844 C-138.14179657 47.33424175 -138.88039854 50.60445387 -139.625 53.875 C-140.04088573 55.6668481 -140.45721615 57.45859351 -140.875 59.25 C-139.77478516 59.37568359 -139.77478516 59.37568359 -138.65234375 59.50390625 C-132.20477018 61.23595485 -127.40007995 68.04053445 -123.9375 73.5 C-120.64572955 79.33704652 -117.92649586 85.47100322 -115.09973145 91.54225159 C-111.95388637 98.20605477 -108.48382301 104.59631309 -104.7890625 110.96875 C-98.58192106 121.82086393 -92.85210633 132.86574189 -87.29956055 144.06469727 C-85.81600371 147.05543678 -84.32182451 150.0406849 -82.82617188 153.02539062 C-75.5356595 167.62916337 -68.6393453 182.3965492 -61.875 197.25 C-61.74131767 196.1329644 -61.74131767 196.1329644 -61.60493469 194.99336243 C-53.99406285 131.43568935 -53.99406285 131.43568935 -50.95986938 109.59951782 C-49.26598187 97.39481375 -47.74213768 85.17323893 -46.26171875 72.94085693 C-45.38286069 65.68930698 -44.49225779 58.43918878 -43.60253906 51.18896484 C-43.12679277 47.31213026 -42.65508658 43.43483779 -42.18652344 39.55712891 C-41.65766366 35.19265775 -41.11241733 30.8305368 -40.55419922 26.46972656 C-40.3538545 24.88433415 -40.15904952 23.2982303 -39.97021484 21.71142578 C-39.71112219 19.54111634 -39.43231968 17.37421722 -39.1484375 15.20703125 C-38.92293213 13.39682495 -38.92293213 13.39682495 -38.69287109 11.55004883 C-37.09007701 5.0828943 -33.18060486 1.0700355 -27.875 -2.75 C-18.86904636 -6.95277837 -8.28442036 -5.04269065 0 0 Z " fill="#F5F1E6" transform="translate(424.875,122.75)"/>
</svg>
